<?xml version="1.0" standalone="no"?>
<!DOCTYPE svg PUBLIC "-//W3C//DTD SVG 20010904//EN"
 "http://www.w3.org/TR/2001/REC-SVG-20010904/DTD/svg10.dtd">
<svg version="1.0" xmlns="http://www.w3.org/2000/svg"
 width="1104.000000pt" height="258.000000pt" viewBox="0 0 1104.000000 258.000000"
 preserveAspectRatio="xMidYMid meet">
<metadata>
Created by potrace 1.13, written by Peter Selinger 2001-2015
</metadata>
<g transform="translate(0.000000,258.000000) scale(0.100000,-0.100000)"
fill="#000000" stroke="none">
<path d="M1495 2097 c-55 -39 -190 -137 -301 -217 l-201 -148 -140 -7 -140 -7
-103 -63 -103 -64 -38 -82 c-22 -45 -39 -83 -39 -85 0 -2 44 25 98 61 l98 65
46 -16 c50 -16 52 -20 64 -111 5 -41 2 -66 -16 -117 -13 -36 -27 -63 -30 -61
-4 3 -13 25 -20 50 -7 25 -16 48 -21 50 -17 11 -20 -82 -4 -143 12 -47 14 -85
9 -155 -6 -81 -11 -99 -42 -151 -35 -58 -35 -60 -24 -115 9 -43 20 -63 44 -84
31 -26 31 -28 8 -21 -63 17 -67 21 -85 89 l-18 66 31 67 c46 98 70 205 58 265
-5 26 -12 47 -15 47 -3 0 -88 -144 -188 -319 -166 -291 -188 -336 -261 -527
-44 -115 -90 -233 -101 -261 l-21 -53 558 0 558 0 26 53 26 53 193 99 c190 96
197 101 327 219 117 106 143 136 211 242 43 66 84 131 92 145 9 16 17 101 25
249 l12 225 -65 135 c-39 81 -84 197 -113 292 l-49 157 38 120 39 121 -148 0
c-82 0 -154 2 -162 4 -7 2 -58 -28 -113 -67z m66 -178 c-94 -27 -156 -59 -216
-111 -5 -4 -14 -45 -20 -91 l-10 -82 -49 -3 -49 -3 6 38 c4 21 7 61 7 88 l0
50 79 62 79 62 94 9 c51 5 113 10 138 10 39 0 32 -3 -59 -29z m3 -108 c10 -16
-6 -42 -23 -39 -9 2 -17 13 -19 26 -3 16 2 22 17 22 11 0 22 -4 25 -9z m-579
-186 c132 -42 243 -80 247 -83 3 -4 -67 -58 -157 -121 -176 -122 -163 -107
-180 -217 -5 -34 -12 -44 -41 -57 -38 -19 -72 -21 -92 -8 -10 6 -6 10 15 14
15 3 37 14 49 25 20 20 25 45 67 371 1 8 -22 28 -52 45 -49 29 -145 127 -111
114 8 -3 123 -40 255 -83z"/>
<path d="M2085 110 l-59 -60 62 0 62 0 0 60 c0 33 -1 60 -3 60 -1 0 -29 -27
-62 -60z"/>
</g>
</svg>
