<?xml version="1.0" encoding="utf-8"?>
<!-- Generator: Adobe Illustrator 15.0.0, SVG Export Plug-In . SVG Version: 6.00 Build 0)  -->
<!DOCTYPE svg PUBLIC "-//W3C//DTD SVG 1.1//EN" "http://www.w3.org/Graphics/SVG/1.1/DTD/svg11.dtd">
<svg version="1.1" id="Layer_1" xmlns="http://www.w3.org/2000/svg" xmlns:xlink="http://www.w3.org/1999/xlink" x="0px" y="0px"
	 width="272.195px" height="277.785px" viewBox="0 0 272.195 277.785" style="enable-background:new 0 0 272.195 277.785;"
	 xml:space="preserve">
<g>
	<path style="fill:#56596B;" d="M272.195,225.292H0V32.202h272.195V225.292z M4.176,221.116h263.843V36.379H4.176V221.116z"/>
	<g>
		<path style="fill:#E6E8ED;" d="M3.881,221.998c32.362-0.208,64.724-0.269,97.085-0.269c30.378,0,60.755,0.061,91.134,0.238
			l-0.469-11.768l18.095-20.881l19.491-50.809l14.617-70.298V43.85l-4.642-14.904l-13.458-10.848l-1.391-10.44L202.766,0
			l-19.715,7.377l-40.167,25.462L88.619,70.995l-25.058,1.393L45.466,83.524l-6.961,14.617l10.44,8.353l5.567,10.44L21.8,174.009
			L3.881,221.998z"/>
		<path style="fill:#56596B;" d="M4.122,221.997c32.281-0.207,64.563-0.267,96.845-0.267c0.458,0,0.917,0.001,1.376,0.001
			l5.068-10.136l59.164-39.674l16.007-25.057l2.088-41.067l-11.831-24.36l-8.352-27.146l6.958-22.272h-28.536l-24.36,16.705
			l-29.93,22.272l-25.058,1.393L45.466,83.524l-6.961,14.617l10.44,8.353l5.567,10.44l-33.234,58.641L4.122,221.997z"/>
		<polygon style="fill:#080B09;" points="129.683,57.075 119.242,64.73 117.154,80.74 130.38,80.044 141.518,73.083 145.694,59.163 
			154.74,50.114 		"/>
		<polygon style="fill:#56596B;" points="130.939,58.745 122.586,64.871 120.915,77.677 131.494,77.121 140.404,71.552 
			141.657,60.417 148.896,53.177 		"/>
		<polygon style="fill:#040505;" points="130.939,58.745 122.586,64.871 124.116,74.303 131.494,77.121 140.404,71.552 
			143.745,56.24 		"/>
		<polygon style="fill:#FDFEFD;" points="136.396,66.994 135.229,64.973 136.396,62.951 138.733,62.951 139.899,64.973 
			138.733,66.994 		"/>
		<polygon style="fill:#8E8494;" points="123.594,52.9 109.5,63.862 108.455,80.045 117.154,80.74 119.242,64.73 129.683,57.075 
			154.74,50.114 		"/>
		<polygon style="fill:#383A43;" points="108.455,80.045 109.5,63.862 123.594,52.9 154.74,50.114 142.909,32.018 88.619,70.995 
			63.561,72.388 70.348,81.09 79.744,85.788 76.09,112.412 111.065,87.876 130.902,82.656 141.518,73.083 130.38,80.044 		"/>
		<polygon style="fill:#383A43;" points="142.909,32.018 154.74,50.114 164.487,54.29 171.445,32.018 		"/>
		<path style="fill:#383A43;" d="M36.068,221.835l16.616-32.146l29.674-5.498l9.596,21.872l-6.617,15.677
			c5.21-0.004,10.419-0.012,15.629-0.012c0.517,0,1.034,0.001,1.551,0.001l4.893-10.136l59.164-39.674l16.007-25.057l2.088-41.067
			l-43.85,26.452l-44.894,1.044l-20.881-14.095l-4.698,2.088l5.044,26.969l-4.175,13.226l-10.123,5.224l-10.062-3.136l-3.479-12.528
			l4.869-9.05l4.176-16.006l-2.088-9.05L21.8,174.009L3.362,222C14.265,221.929,25.166,221.876,36.068,221.835z"/>
		<polygon style="fill:#121214;" points="56.6,125.984 50.335,140.252 45.115,149.649 51.033,163.568 47.554,151.04 52.423,141.99 
					"/>
		<polygon style="fill:#8F879A;" points="61.474,116.065 66.347,103.015 64.258,89.789 55.208,86.832 38.504,98.141 48.945,106.494 
			54.512,116.934 56.6,125.984 52.423,141.99 47.554,151.04 51.033,163.568 61.094,166.705 53.818,161.133 51.188,151.17 
			58.341,139.035 59.385,123.896 56.253,111.367 57.819,105.103 		"/>
		<polygon style="fill:#121214;" points="95.927,133.292 79.222,121.808 75.355,123.479 75.046,119.198 76.09,112.412 
			79.744,85.788 70.348,81.09 63.561,72.388 45.466,83.524 38.504,98.141 55.208,86.832 65.65,86.31 74.524,92.053 71.392,117.109 
			66.171,119.198 61.474,116.065 57.819,105.103 56.253,111.367 59.385,123.896 58.341,134.336 58.341,139.035 63.561,131.726 
			70.87,128.594 74.524,149.474 71.217,161.48 		"/>
		<polygon style="fill:#8F879A;" points="111.065,87.876 63.561,72.388 70.348,81.09 79.744,85.788 76.09,112.412 75.046,119.198 
			70.086,122.33 65.65,123.113 71.392,125.201 79.222,121.808 81.106,108.89 		"/>
		<path style="fill:#121214;" d="M17.436,221.929l18.569-38.434l25.09-16.791l-10.062-3.136l-5.918-13.919l-18.095,22.97
			L5.635,221.99C9.568,221.965,13.502,221.949,17.436,221.929z"/>
		<polygon style="fill:#56596B;" points="141.384,178.152 96.971,184.45 107.411,211.595 143.288,193.112 166.575,171.921 
			182.583,146.864 		"/>
		<polygon style="fill:#E9EAEB;" points="202.766,0 183.051,7.377 142.909,32.018 171.445,32.018 189.369,14.27 210.25,13.226 
			224.344,7.657 		"/>
		<polygon style="fill:#FDFEFD;" points="222.256,23.144 209.206,17.924 190.237,22.275 171.445,32.018 164.487,54.29 
			172.839,81.437 184.67,105.796 182.583,146.864 166.575,171.921 143.288,193.112 172.142,178.883 209.728,130.16 226.135,66.904 
			234.087,57.772 231.07,38.64 		"/>
		<polygon style="fill:#F7F9F9;" points="230.608,38.632 222.256,23.144 209.206,17.924 190.237,22.275 171.445,32.018 
			164.487,54.29 226.433,67.168 234.087,57.424 		"/>
		<polygon style="fill:#FDFEFD;" points="191.979,8.875 142.909,32.018 171.445,32.018 190.237,22.275 209.206,17.924 
			210.25,13.226 		"/>
		<path style="fill:#F7F9F9;" d="M153.836,221.807l2.133-5.167l38.097-29.233l30.799-53.768l16.183-66.296l-5.743,1.044
			l-4.176,3.132l-15.139,60.033l-37.586,53.767l-54.812,28.711l-4.208,7.714C130.87,221.754,142.354,221.774,153.836,221.807z"/>
		<path style="fill:#D3D0DA;" d="M174.626,221.88l2.214-11.517l24.36-20.88l17.75-33.059l10.268-17.913l14.617-70.298V43.85
			l-4.642-14.904l-13.458-10.848l2.264,9.907l9.745,28.884l4.872,5.569l-17.732,70.412l-29.599,53.479l-39.314,30.29l-1.968,5.167
			C160.877,221.825,167.751,221.847,174.626,221.88z"/>
		<polygon style="fill:#F2D7B9;" points="234.785,37.935 227.824,22.274 222.256,23.144 230.608,38.632 234.087,57.424 
			239.655,57.424 		"/>
		<polygon style="fill:#C67F6D;" points="239.655,57.424 234.087,57.424 226.433,67.168 237.183,61.183 242.44,62.993 		"/>
		<polygon style="fill:#F8A589;" points="224.344,11.833 210.25,13.226 209.206,17.924 222.256,23.144 227.824,22.274 		"/>
		<polygon style="fill:#C67F6D;" points="210.25,13.226 209.206,17.924 222.256,23.144 222.604,22.97 		"/>
		<path style="fill:#8F879A;" d="M119.387,221.744l4.208-7.714l54.812-28.711l-70.995,26.277l-4.893,10.136
			C108.141,221.733,113.765,221.739,119.387,221.744z"/>
		<polygon style="fill:#F2D7B9;" points="237.183,61.183 226.433,67.168 223.647,76.204 231.131,71.518 235.307,68.386 
			241.049,67.342 242.44,62.993 		"/>
		<polygon style="fill:#D3D0DA;" points="202.766,0 221.298,9.125 220.515,12.256 224.344,11.833 224.344,7.657 		"/>
		<polygon style="fill:#F7F9F9;" points="184.67,105.796 182.583,146.864 209.728,130.16 223.647,76.204 		"/>
		<polygon style="fill:#E6E8ED;" points="178.406,185.318 123.594,214.029 155.97,216.64 195.284,186.35 		"/>
		<path style="fill:#8F879A;" d="M174.626,221.88c5.824,0.025,11.652,0.054,17.475,0.088l-0.469-11.768l18.095-20.881l19.491-50.809
			L201.2,189.482l-38.976,31.321l13.611-5.216L174.626,221.88z"/>
		<path style="fill:#56596B;" d="M192.101,221.968l-0.469-11.768l-11.712,11.705C183.981,221.925,188.04,221.943,192.101,221.968z"
			/>
		<path style="fill:#E6E8ED;" d="M153.836,221.807l2.133-5.167l-32.375-2.61l-4.208,7.714
			C130.87,221.754,142.354,221.774,153.836,221.807z"/>
	</g>
	<rect x="0.037" y="221.265" style="fill:#56596B;" width="271.463" height="4.027"/>
	<g>
		<path style="fill:#56596B;" d="M21.686,277.785H2.555c-1.028,0-1.54-0.487-1.54-1.463v-25.94c0-0.978,0.512-1.466,1.54-1.466
			h16.647c1.922,0,3.594,0.571,5.019,1.715c1.491,1.193,2.236,2.691,2.236,4.496c0,1.492-0.53,2.783-1.59,3.876
			c2.734,1.127,4.1,2.973,4.1,5.54v7.056c0,1.823-0.779,3.34-2.336,4.548C25.206,277.239,23.558,277.785,21.686,277.785z
			 M19.202,251.848H4.096v6.533h15.131c1.026,0,1.954-0.289,2.783-0.868c0.91-0.647,1.366-1.44,1.366-2.386
			c0-1.009-0.464-1.83-1.392-2.459C21.172,252.121,20.246,251.848,19.202,251.848z M25.885,264.542c0-0.96-0.456-1.753-1.366-2.384
			c-0.828-0.58-1.772-0.87-2.833-0.87H4.096v13.564h17.59c1.061,0,2.005-0.281,2.833-0.844c0.91-0.628,1.366-1.432,1.366-2.411
			V264.542z"/>
		<path style="fill:#56596B;" d="M55.676,277.785H35.228c-1.028,0-1.541-0.487-1.541-1.463v-25.94c0-0.978,0.513-1.466,1.541-1.466
			h19.131c1.027,0,1.541,0.489,1.541,1.466c0,0.976-0.514,1.466-1.541,1.466h-17.59v6.533h17.59c1.027,0,1.541,0.49,1.541,1.468
			c0,0.958-0.514,1.439-1.541,1.439h-17.59v13.564h18.908c1.027,0,1.539,0.49,1.539,1.469
			C57.215,277.298,56.703,277.785,55.676,277.785z"/>
		<path style="fill:#56596B;" d="M85.267,251.848H74.359v24.474c0,0.976-0.512,1.463-1.539,1.463c-1.028,0-1.541-0.487-1.541-1.463
			v-24.474H60.396c-1.026,0-1.54-0.49-1.54-1.466c0-0.978,0.514-1.466,1.54-1.466h24.871c1.027,0,1.541,0.489,1.541,1.466
			C86.808,251.358,86.294,251.848,85.267,251.848z"/>
		<path style="fill:#56596B;" d="M111.803,277.785c-0.647,0-1.103-0.281-1.366-0.844l-4.125-8.597H92.473l-4.1,8.597
			c-0.265,0.563-0.729,0.844-1.392,0.844c-1.042,0-1.565-0.479-1.565-1.439c0-0.216,0.05-0.424,0.149-0.622l12.423-25.965
			c0.298-0.644,0.77-0.969,1.417-0.969c0.629,0,1.093,0.325,1.391,0.969l12.423,25.965c0.1,0.198,0.148,0.405,0.148,0.622
			C113.368,277.306,112.847,277.785,111.803,277.785z M99.405,253.884l-5.541,11.528h11.056L99.405,253.884z"/>
		<path style="fill:#56596B;" d="M142.958,277.785h-19.155c-1.921,0-3.587-0.562-4.994-1.688c-1.508-1.21-2.262-2.708-2.262-4.499
			v-16.472c0-1.805,0.746-3.303,2.236-4.496c1.424-1.144,3.098-1.715,5.019-1.715h13.417c1.028,0,1.542,0.489,1.542,1.466
			c0,0.976-0.514,1.466-1.542,1.466h-13.417c-1.061,0-1.996,0.289-2.808,0.868c-0.912,0.63-1.366,1.434-1.366,2.411v16.472
			c0,0.963,0.454,1.766,1.366,2.411c0.828,0.563,1.764,0.844,2.808,0.844h19.155c1.027,0,1.542,0.49,1.542,1.469
			C144.5,277.298,143.985,277.785,142.958,277.785z"/>
		<path style="fill:#56596B;" d="M174.091,277.785h-19.156c-1.923,0-3.589-0.562-4.996-1.688c-1.507-1.21-2.26-2.708-2.26-4.499
			v-21.217c0-0.978,0.512-1.466,1.54-1.466c1.025,0,1.539,0.489,1.539,1.466v21.217c0,0.963,0.457,1.766,1.367,2.411
			c0.828,0.563,1.766,0.844,2.81,0.844h19.156c1.026,0,1.54,0.49,1.54,1.469C175.631,277.298,175.118,277.785,174.091,277.785z"/>
		<path style="fill:#56596B;" d="M199.483,277.785h-13.417c-1.921,0-3.585-0.562-4.992-1.688c-1.509-1.21-2.264-2.708-2.264-4.499
			v-16.472c0-1.805,0.747-3.303,2.237-4.496c1.426-1.144,3.098-1.715,5.019-1.715h13.417c1.921,0,3.593,0.571,5.021,1.715
			c1.505,1.193,2.26,2.691,2.26,4.496v16.472c0,1.823-0.779,3.34-2.337,4.548C203.002,277.239,201.355,277.785,199.483,277.785z
			 M203.682,255.126c0-0.977-0.455-1.788-1.367-2.435c-0.828-0.562-1.771-0.844-2.832-0.844h-13.417
			c-1.061,0-1.995,0.289-2.806,0.868c-0.914,0.63-1.366,1.434-1.366,2.411v16.472c0,0.963,0.453,1.766,1.366,2.411
			c0.828,0.563,1.762,0.844,2.806,0.844h13.417c1.061,0,2.004-0.281,2.832-0.844c0.912-0.628,1.367-1.432,1.367-2.411V255.126z"/>
		<path style="fill:#56596B;" d="M232.155,277.785h-13.416c-1.923,0-3.586-0.562-4.994-1.688c-1.509-1.21-2.261-2.708-2.261-4.499
			v-21.241c0-0.978,0.512-1.466,1.54-1.466s1.542,0.489,1.542,1.466v21.241c0,0.963,0.455,1.766,1.366,2.411
			c0.828,0.563,1.764,0.844,2.808,0.844h13.416c1.06,0,2.006-0.281,2.834-0.844c0.909-0.628,1.366-1.432,1.366-2.411v-21.241
			c0-0.978,0.515-1.466,1.54-1.466c1.026,0,1.539,0.489,1.539,1.466v21.241c0,1.823-0.778,3.34-2.334,4.548
			C235.673,277.239,234.026,277.785,232.155,277.785z"/>
		<path style="fill:#56596B;" d="M264.828,277.785h-19.131c-1.028,0-1.54-0.487-1.54-1.463v-25.94c0-0.978,0.512-1.466,1.54-1.466
			h19.131c1.921,0,3.595,0.562,5.019,1.688c1.509,1.211,2.261,2.71,2.261,4.499v16.497c0,1.823-0.779,3.34-2.334,4.548
			C268.347,277.239,266.7,277.785,264.828,277.785z M269.026,255.102c0-0.977-0.456-1.781-1.366-2.411
			c-0.828-0.562-1.772-0.844-2.833-0.844h-17.592v23.005h17.592c1.061,0,2.005-0.281,2.833-0.844
			c0.91-0.628,1.366-1.432,1.366-2.411V255.102z"/>
	</g>
</g>
</svg>
